<?xml version="1.0" encoding="utf-8"?>
<!-- Generator: Adobe Illustrator 16.0.0, SVG Export Plug-In . SVG Version: 6.00 Build 0)  -->
<!DOCTYPE svg PUBLIC "-//W3C//DTD SVG 1.1//EN" "http://www.w3.org/Graphics/SVG/1.1/DTD/svg11.dtd">
<svg version="1.1" id="Capa_1" xmlns="http://www.w3.org/2000/svg" xmlns:xlink="http://www.w3.org/1999/xlink" x="0px" y="0px"
	 width="26px" height="23px" viewBox="0 0 26 23" enable-background="new 0 0 26 23" xml:space="preserve">
<g>
	<defs>
		<rect id="SVGID_1_" x="0.277" y="0.157" width="25.445" height="22.686"/>
	</defs>
	<clipPath id="SVGID_2_">
		<use xlink:href="#SVGID_1_"  overflow="visible"/>
	</clipPath>
	<path clip-path="url(#SVGID_2_)" fill="#4B4B4D" d="M13.215,0.157c-1.399,1.232-2.769,2.436-4.138,3.64
		C7.568,5.126,6.06,6.456,4.55,7.785C3.169,9,1.786,10.213,0.403,11.426c-0.14,0.122-0.184,0.22-0.025,0.386
		c0.412,0.43,0.987,0.586,1.512,0.315c0.38-0.196,0.752-0.433,1.08-0.707c1.498-1.255,2.978-2.532,4.47-3.795
		c1.847-1.56,3.702-3.109,5.548-4.672c0.184-0.156,0.292-0.129,0.458,0.021c2.668,2.398,5.338,4.796,8.018,7.183
		c0.666,0.593,1.334,1.198,2.068,1.701c0.551,0.376,1.207,0.562,1.854,0.105c0.436-0.307,0.443-0.382,0.055-0.731
		c-1.189-1.075-2.381-2.149-3.568-3.227c-2.102-1.902-4.199-3.807-6.299-5.71C14.797,1.591,14.02,0.888,13.215,0.157 M3.705,17.39
		h0.006c0,1.599-0.009,3.198,0.005,4.796c0.004,0.513,0.179,0.653,0.697,0.653c1.963,0,3.927-0.008,5.891,0.004
		c0.285,0.002,0.339-0.111,0.34-0.359c0.006-1.491,0.021-2.983,0.037-4.474c0.003-0.256,0.022-0.515,0.052-0.77
		c0.04-0.354,0.231-0.557,0.58-0.561c0.998-0.014,1.996-0.007,2.994-0.002c0.293,0.002,0.518,0.155,0.629,0.417
		c0.078,0.181,0.121,0.392,0.121,0.589c0.006,1.578,0.004,3.155-0.01,4.732c-0.002,0.303,0.094,0.438,0.41,0.411
		c0.234-0.021,0.473-0.004,0.709-0.004c1.664,0,3.326,0.002,4.988-0.003c0.316-0.001,0.648-0.038,0.779-0.376
		c0.086-0.222,0.109-0.479,0.111-0.722c0.008-2.983,0.006-5.966,0.012-8.95c0-0.282-0.092-0.503-0.311-0.691
		c-0.615-0.532-1.221-1.076-1.828-1.617c-2.172-1.935-4.346-3.867-6.516-5.807c-0.19-0.171-0.324-0.194-0.54-0.01
		c-1.387,1.181-2.786,2.344-4.182,3.513c-1.571,1.317-3.143,2.636-4.719,3.949c-0.188,0.157-0.263,0.332-0.262,0.58
		C3.71,14.256,3.705,15.822,3.705,17.39"/>
	<path clip-path="url(#SVGID_2_)" fill="#4B4B4D" d="M3.705,17.39c0-1.567,0.005-3.134-0.005-4.7
		c-0.001-0.248,0.074-0.423,0.262-0.58c1.576-1.313,3.147-2.632,4.719-3.949c1.396-1.169,2.795-2.332,4.182-3.513
		c0.216-0.185,0.35-0.161,0.54,0.01c2.17,1.939,4.344,3.872,6.516,5.807c0.607,0.541,1.213,1.085,1.828,1.617
		c0.219,0.188,0.311,0.409,0.311,0.691c-0.006,2.984-0.004,5.967-0.012,8.95c-0.002,0.242-0.025,0.5-0.111,0.722
		c-0.131,0.338-0.463,0.375-0.779,0.376c-1.662,0.005-3.324,0.003-4.988,0.003c-0.236,0-0.475-0.017-0.709,0.004
		c-0.316,0.027-0.412-0.108-0.41-0.411c0.014-1.577,0.016-3.154,0.01-4.732c0-0.197-0.043-0.408-0.121-0.589
		c-0.111-0.262-0.336-0.415-0.629-0.417c-0.998-0.005-1.996-0.012-2.994,0.002c-0.349,0.004-0.54,0.207-0.58,0.561
		c-0.029,0.255-0.049,0.514-0.052,0.77c-0.017,1.49-0.031,2.982-0.037,4.474c-0.001,0.248-0.055,0.361-0.34,0.359
		c-1.964-0.012-3.928-0.004-5.891-0.004c-0.519,0-0.693-0.141-0.697-0.653c-0.014-1.598-0.005-3.197-0.005-4.796H3.705z"/>
	<path clip-path="url(#SVGID_2_)" fill="#4B4B4D" d="M13.215,0.157c0.805,0.73,1.582,1.435,2.359,2.139
		c2.098,1.902,4.195,3.807,6.297,5.709c1.188,1.076,2.379,2.151,3.568,3.227c0.389,0.349,0.379,0.425-0.055,0.731
		c-0.646,0.456-1.303,0.271-1.854-0.106c-0.734-0.502-1.402-1.106-2.068-1.701c-2.68-2.386-5.348-4.783-8.017-7.182
		c-0.167-0.15-0.275-0.176-0.459-0.021c-1.847,1.563-3.701,3.112-5.548,4.674c-1.492,1.261-2.972,2.54-4.47,3.794
		c-0.328,0.274-0.699,0.511-1.08,0.707c-0.525,0.271-1.1,0.114-1.512-0.316c-0.158-0.165-0.114-0.262,0.025-0.384
		C1.786,10.214,3.169,9,4.55,7.784c1.511-1.328,3.019-2.657,4.527-3.986C10.446,2.593,11.815,1.389,13.215,0.157"/>
</g>
</svg>
